<svg enable-background="new 0 0 2295 43" viewBox="0 0 2295 43" xmlns="http://www.w3.org/2000/svg"><path d="m2295 0h-2295v19 21.5c5.8 1.7 11.4 2.5 17 2.5 12.8 0 22.8-4.1 32.4-8.1s18.7-7.8 30.4-7.8 20.8 3.8 30.4 7.8 19.6 8.1 32.4 8.1 22.8-4.1 32.4-8.1 18.7-7.8 30.4-7.8c11.8 0 20.8 3.8 30.4 7.8s19.6 8.1 32.4 8.1 22.8-4.1 32.4-8.1 18.7-7.8 30.4-7.8c11.8 0 20.8 3.8 30.4 7.8 4.6 1.9 9.3 3.9 14.4 5.4v.3c5.8 1.7 11.4 2.5 17 2.5h.5.5c5.6 0 11.2-.8 17-2.5v-.3c5.1-1.5 9.8-3.5 14.4-5.4 9.6-4 18.7-7.8 30.4-7.8s20.8 3.8 30.4 7.8 19.6 8.1 32.4 8.1 22.8-4.1 32.4-8.1 18.7-7.8 30.4-7.8c11.8 0 20.8 3.8 30.4 7.8s19.6 8.1 32.4 8.1 22.8-4.1 32.4-8.1 18.7-7.8 30.4-7.8c11.8 0 20.8 3.8 30.4 7.8s19.6 8.1 32.4 8.1h1 1c12.8 0 22.8-4.1 32.4-8.1s18.7-7.8 30.4-7.8c11.8 0 20.8 3.8 30.4 7.8s19.6 8.1 32.4 8.1 22.8-4.1 32.4-8.1 18.7-7.8 30.4-7.8c11.8 0 20.8 3.8 30.4 7.8s19.6 8.1 32.4 8.1 22.8-4.1 32.4-8.1 18.7-7.8 30.4-7.8c11.8 0 20.8 3.8 30.4 7.8 4.6 1.9 9.3 3.9 14.4 5.4v.3c5.8 1.7 11.4 2.5 17 2.5h.5.5c5.6 0 11.2-.8 17-2.5v-.3c5.1-1.5 9.8-3.5 14.4-5.4 9.6-4 18.7-7.8 30.4-7.8 11.8 0 20.8 3.8 30.4 7.8s19.6 8.1 32.4 8.1 22.8-4.1 32.4-8.1 18.7-7.8 30.4-7.8c11.8 0 20.8 3.8 30.4 7.8s19.6 8.1 32.4 8.1 22.8-4.1 32.4-8.1 18.7-7.8 30.4-7.8c11.8 0 20.8 3.8 30.4 7.8 4.9 2 10 4.1 15.4 5.7.5.1.9.3 1.4.4.1 0 .2.1.3.1.5.1 1 .3 1.6.4.2 0 .4.1.6.1.5.1.9.2 1.4.3.3.1.5.1.8.2.4.1.8.1 1.2.2.3.1.6.1.9.2.4.1.8.1 1.2.2.3 0 .6.1 1 .1s.9.1 1.3.1c.3 0 .6.1.9.1.5 0 1 .1 1.5.1h.7 2.2s0 0 0 0h2.2.7c.5 0 1-.1 1.5-.1.3 0 .6-.1.9-.1.4 0 .9-.1 1.3-.1.3 0 .6-.1.9-.1.4-.1.8-.1 1.2-.2.3 0 .6-.1.9-.1.4-.1.8-.1 1.3-.2.3-.1.5-.1.8-.2.5-.1.9-.2 1.4-.3.2 0 .4-.1.6-.1.5-.1 1-.2 1.6-.4.1 0 .2 0 .3-.1.5-.1 1-.2 1.4-.4 5.4-1.5 10.5-3.6 15.4-5.7 9.6-4 18.7-7.8 30.4-7.8 11.8 0 20.8 3.8 30.4 7.8s19.6 8.1 32.4 8.1 22.8-4.1 32.4-8.1 18.7-7.8 30.4-7.8c11.8 0 20.8 3.8 30.4 7.8s19.6 8.1 32.4 8.1 22.8-4.1 32.4-8.1 18.7-7.8 30.4-7.8c11.8 0 20.8 3.8 30.4 7.8 4.6 1.9 9.3 3.9 14.4 5.4v.3c5.8 1.7 11.4 2.5 17 2.5h.5.5c5.6 0 11.2-.8 17-2.5v-.3c5.1-1.5 9.8-3.5 14.4-5.4 9.6-4 18.7-7.8 30.4-7.8s20.8 3.8 30.4 7.8 19.6 8.1 32.4 8.1 22.8-4.1 32.4-8.1 18.7-7.8 30.4-7.8c11.8 0 20.8 3.8 30.4 7.8s19.6 8.1 32.4 8.1 22.8-4.1 32.4-8.1 18.7-7.8 30.4-7.8c11.8 0 20.8 3.8 30.4 7.8s19.6 8.1 32.4 8.1c5.6 0 11.2-.8 17-2.5v-16.5-24.1z"/></svg>